<svg width="126" height="126" viewBox="0 0 126 126" fill="none" xmlns="http://www.w3.org/2000/svg">
<g filter="url(#filter0_d_398_18735)">
<path d="M63 0L66.9784 9.71833L72.4643 0.764034L74.8322 10.9947L81.6834 3.03635L82.3796 13.5144L90.4187 6.75809L89.4251 17.2121L98.4438 11.8329L95.7861 21.9921L105.551 18.1293L101.298 27.7306L111.556 25.4842L105.818 34.279L116.304 33.7071L109.229 41.4676L119.671 42.5852L111.443 49.1103L121.57 51.8883L112.402 57.0092L121.952 61.3757L112.082 64.9596L120.808 70.8015L110.49 72.7556L118.166 79.9217L107.668 80.1954L114.095 88.5L103.69 87.0863L108.702 96.3143L98.6577 93.2497L102.124 103.162L92.7019 98.526L94.5335 108.866L85.9768 102.779L86.126 113.279L78.6567 105.898L77.1196 116.286L70.9311 107.802L67.7475 117.809L63 108.442L58.2525 117.809L55.0689 107.802L48.8804 116.286L47.3433 105.898L39.874 113.279L40.0232 102.779L31.4665 108.866L33.2981 98.526L23.8758 103.162L27.3423 93.2497L17.2983 96.3143L22.31 87.0863L11.9045 88.5L18.3316 80.1954L7.83404 79.9217L15.5101 72.7556L5.19235 70.8015L13.9185 64.9596L4.04785 61.3757L13.5981 57.0092L4.43018 51.8883L14.5572 49.1103L6.32943 42.5852L16.7709 41.4676L9.69642 33.7071L20.182 34.279L14.444 25.4842L24.702 27.7306L20.4491 18.1293L30.2139 21.9921L27.5562 11.8329L36.5749 17.2121L35.5813 6.75809L43.6204 13.5144L44.3166 3.03635L51.1678 10.9947L53.5357 0.764034L59.0216 9.71833L63 0Z" fill="#D1A745"/>
</g>
<path d="M61.9324 56.3452C62.1371 56.3708 62.3034 56.3836 62.4314 56.3836C62.5849 56.3836 62.7128 56.3836 62.8152 56.3836C63.7619 56.3836 64.5295 56.1021 65.118 55.5392C65.7065 54.9763 66.0007 54.2471 66.0007 53.3516C66.0007 52.4816 65.7192 51.778 65.1563 51.2407C64.619 50.7033 63.9154 50.4347 63.0454 50.4347C62.1243 50.4347 61.3823 50.7417 60.8194 51.3558C60.2565 51.9699 59.975 52.7631 59.975 53.7354H53.0283C53.2074 52.2257 53.5784 50.8824 54.1413 49.7055C54.7298 48.5285 55.4718 47.5434 56.3673 46.7502C57.2629 45.9314 58.3119 45.3173 59.5145 44.908C60.7171 44.473 62.0476 44.2555 63.506 44.2555C64.9389 44.2555 66.231 44.4602 67.3824 44.8696C68.5594 45.2534 69.5572 45.8163 70.376 46.5583C71.2204 47.2747 71.86 48.1575 72.295 49.2065C72.7556 50.23 72.9859 51.3814 72.9859 52.6607C72.9859 54.0424 72.7172 55.181 72.1799 56.0765C71.6681 56.9465 70.9261 57.7013 69.9538 58.341C71.4379 58.8015 72.5893 59.6331 73.408 60.8357C74.2524 62.0126 74.6746 63.4711 74.6746 65.211C74.6746 66.6438 74.3931 67.9488 73.8302 69.1257C73.2673 70.3027 72.4741 71.3134 71.4507 72.1578C70.4528 73.0021 69.2502 73.6546 67.8429 74.1151C66.4613 74.5757 64.9389 74.806 63.2757 74.806C61.0497 74.806 59.0411 74.371 57.2501 73.5011C55.459 72.6311 54.0261 71.2494 52.9515 69.356C52.4654 68.5117 52.1327 67.6673 51.9536 66.8229C51.8001 65.9786 51.7233 65.1214 51.7233 64.2515H59.1691C59.2202 65.6076 59.6168 66.6438 60.3588 67.3603C61.1009 68.0511 62.0987 68.3965 63.3525 68.3965C64.683 68.3965 65.6553 68.0383 66.2694 67.3219C66.8834 66.6055 67.1905 65.7227 67.1905 64.6737C67.1905 63.4199 66.8195 62.4732 66.0775 61.8335C65.3354 61.1939 64.4527 60.874 63.4292 60.874C63.1734 60.874 62.9303 60.8996 62.7 60.9508C62.4697 60.9764 62.2139 61.0148 61.9324 61.0659V56.3452Z" fill="#34015A"/>
<defs>
<filter id="filter0_d_398_18735" x="0.0478516" y="0" width="125.904" height="125.809" filterUnits="userSpaceOnUse" color-interpolation-filters="sRGB">
<feFlood flood-opacity="0" result="BackgroundImageFix"/>
<feColorMatrix in="SourceAlpha" type="matrix" values="0 0 0 0 0 0 0 0 0 0 0 0 0 0 0 0 0 0 127 0" result="hardAlpha"/>
<feOffset dy="4"/>
<feGaussianBlur stdDeviation="2"/>
<feComposite in2="hardAlpha" operator="out"/>
<feColorMatrix type="matrix" values="0 0 0 0 0 0 0 0 0 0 0 0 0 0 0 0 0 0 0.25 0"/>
<feBlend mode="normal" in2="BackgroundImageFix" result="effect1_dropShadow_398_18735"/>
<feBlend mode="normal" in="SourceGraphic" in2="effect1_dropShadow_398_18735" result="shape"/>
</filter>
</defs>
</svg>
