<svg width="126" height="126" viewBox="0 0 126 126" fill="none" xmlns="http://www.w3.org/2000/svg">
<g filter="url(#filter0_d_398_18720)">
<path d="M63 0L66.9784 9.71833L72.4643 0.764034L74.8322 10.9947L81.6834 3.03635L82.3796 13.5144L90.4187 6.75809L89.4251 17.2121L98.4438 11.8329L95.7861 21.9921L105.551 18.1293L101.298 27.7306L111.556 25.4842L105.818 34.279L116.304 33.7071L109.229 41.4676L119.671 42.5852L111.443 49.1103L121.57 51.8883L112.402 57.0092L121.952 61.3757L112.082 64.9596L120.808 70.8015L110.49 72.7556L118.166 79.9217L107.668 80.1954L114.095 88.5L103.69 87.0863L108.702 96.3143L98.6577 93.2497L102.124 103.162L92.7019 98.526L94.5335 108.866L85.9768 102.779L86.126 113.279L78.6567 105.898L77.1196 116.286L70.9311 107.802L67.7475 117.809L63 108.442L58.2525 117.809L55.0689 107.802L48.8804 116.286L47.3433 105.898L39.874 113.279L40.0232 102.779L31.4665 108.866L33.2981 98.526L23.8758 103.162L27.3423 93.2497L17.2983 96.3143L22.31 87.0863L11.9045 88.5L18.3316 80.1954L7.83404 79.9217L15.5101 72.7556L5.19235 70.8015L13.9185 64.9596L4.04785 61.3757L13.5981 57.0092L4.43018 51.8883L14.5572 49.1103L6.32943 42.5852L16.7709 41.4676L9.69642 33.7071L20.182 34.279L14.444 25.4842L24.702 27.7306L20.4491 18.1293L30.2139 21.9921L27.5562 11.8329L36.5749 17.2121L35.5813 6.75809L43.6204 13.5144L44.3166 3.03635L51.1678 10.9947L53.5357 0.764034L59.0216 9.71833L63 0Z" fill="#D1A745"/>
</g>
<path d="M60.6275 51.4326H56.4057V45.0615H68.15V74H60.6275V51.4326Z" fill="#34015A"/>
<defs>
<filter id="filter0_d_398_18720" x="0.0478516" y="0" width="125.904" height="125.809" filterUnits="userSpaceOnUse" color-interpolation-filters="sRGB">
<feFlood flood-opacity="0" result="BackgroundImageFix"/>
<feColorMatrix in="SourceAlpha" type="matrix" values="0 0 0 0 0 0 0 0 0 0 0 0 0 0 0 0 0 0 127 0" result="hardAlpha"/>
<feOffset dy="4"/>
<feGaussianBlur stdDeviation="2"/>
<feComposite in2="hardAlpha" operator="out"/>
<feColorMatrix type="matrix" values="0 0 0 0 0 0 0 0 0 0 0 0 0 0 0 0 0 0 0.25 0"/>
<feBlend mode="normal" in2="BackgroundImageFix" result="effect1_dropShadow_398_18720"/>
<feBlend mode="normal" in="SourceGraphic" in2="effect1_dropShadow_398_18720" result="shape"/>
</filter>
</defs>
</svg>
