<svg width="272" height="272" viewBox="0 0 272 272" fill="none" xmlns="http://www.w3.org/2000/svg">
<g filter="url(#filter0_d_5016_16001)">
<path d="M136 0L144.901 21.7427L157.174 1.70937L162.472 24.5983L177.8 6.79319L179.358 30.2356L197.343 15.1198L195.12 38.5085L215.298 26.4736L209.352 49.2027L231.199 40.5604L221.684 62.0414L244.634 57.0155L231.796 76.692L255.255 75.4126L239.428 92.775L262.788 95.2753L244.381 109.874L267.038 116.089L246.526 127.546L267.893 137.315L245.809 145.333L265.332 158.403L242.249 162.775L259.422 178.808L235.936 179.42L250.315 198L227.035 194.837L238.248 215.483L215.777 208.626L223.532 230.803L202.452 220.431L206.549 243.565L187.406 229.946L187.74 253.437L171.029 236.923L167.59 260.164L153.744 241.184L146.622 263.572L136 242.616L125.378 263.572L118.256 241.184L104.41 260.164L100.971 236.923L84.2604 253.437L84.5942 229.946L65.4505 243.565L69.5483 220.431L48.4678 230.803L56.2235 208.626L33.7521 215.483L44.9648 194.837L21.6846 198L36.0639 179.42L12.5779 178.808L29.7513 162.775L6.66763 158.403L26.1905 145.333L4.10706 137.315L25.4737 127.546L4.96243 116.089L27.6195 109.874L9.21161 95.2753L32.5722 92.775L16.7445 75.4126L40.2037 76.692L27.3661 57.0155L50.3163 62.0414L40.8013 40.5604L62.648 49.2027L56.702 26.4736L76.8795 38.5085L74.6565 15.1198L92.6422 30.2356L94.1998 6.79319L109.528 24.5983L114.826 1.70937L127.099 21.7427L136 0Z" fill="#D1A745"/>
</g>
<defs>
<filter id="filter0_d_5016_16001" x="0.105469" y="0" width="271.789" height="271.572" filterUnits="userSpaceOnUse" color-interpolation-filters="sRGB">
<feFlood flood-opacity="0" result="BackgroundImageFix"/>
<feColorMatrix in="SourceAlpha" type="matrix" values="0 0 0 0 0 0 0 0 0 0 0 0 0 0 0 0 0 0 127 0" result="hardAlpha"/>
<feOffset dy="4"/>
<feGaussianBlur stdDeviation="2"/>
<feComposite in2="hardAlpha" operator="out"/>
<feColorMatrix type="matrix" values="0 0 0 0 0 0 0 0 0 0 0 0 0 0 0 0 0 0 0.25 0"/>
<feBlend mode="normal" in2="BackgroundImageFix" result="effect1_dropShadow_5016_16001"/>
<feBlend mode="normal" in="SourceGraphic" in2="effect1_dropShadow_5016_16001" result="shape"/>
</filter>
</defs>
</svg>
